<mxfile host="app.diagrams.net" agent="Mozilla/5.0 (Windows NT 10.0; Win64; x64) AppleWebKit/537.36 (KHTML, like Gecko) Chrome/134.0.0.0 Safari/537.36 Edg/134.0.0.0" version="26.1.1">
  <diagram name="Página-1" id="XXNUjef1jXiNQg9-PNvL">
    <mxGraphModel dx="1066" dy="565" grid="1" gridSize="10" guides="1" tooltips="1" connect="1" arrows="1" fold="1" page="1" pageScale="1" pageWidth="827" pageHeight="1169" math="0" shadow="0">
      <root>
        <mxCell id="0" />
        <mxCell id="1" parent="0" />
        <mxCell id="nPl-NV0BP4tWfDNHAxWA-5" value="" style="edgeStyle=orthogonalEdgeStyle;rounded=0;orthogonalLoop=1;jettySize=auto;html=1;" edge="1" parent="1" source="nPl-NV0BP4tWfDNHAxWA-1" target="nPl-NV0BP4tWfDNHAxWA-4">
          <mxGeometry relative="1" as="geometry" />
        </mxCell>
        <mxCell id="nPl-NV0BP4tWfDNHAxWA-1" value="Insertar/Pasar tarjeta en el lector" style="rounded=1;whiteSpace=wrap;html=1;" vertex="1" parent="1">
          <mxGeometry x="354" y="60" width="120" height="60" as="geometry" />
        </mxCell>
        <mxCell id="nPl-NV0BP4tWfDNHAxWA-3" style="edgeStyle=orthogonalEdgeStyle;rounded=0;orthogonalLoop=1;jettySize=auto;html=1;" edge="1" parent="1" source="nPl-NV0BP4tWfDNHAxWA-2" target="nPl-NV0BP4tWfDNHAxWA-1">
          <mxGeometry relative="1" as="geometry" />
        </mxCell>
        <mxCell id="nPl-NV0BP4tWfDNHAxWA-2" value="" style="ellipse;whiteSpace=wrap;html=1;aspect=fixed;" vertex="1" parent="1">
          <mxGeometry x="394" width="40" height="40" as="geometry" />
        </mxCell>
        <mxCell id="nPl-NV0BP4tWfDNHAxWA-4" value="Introducir PIN" style="rounded=1;whiteSpace=wrap;html=1;" vertex="1" parent="1">
          <mxGeometry x="354" y="180" width="120" height="60" as="geometry" />
        </mxCell>
        <mxCell id="nPl-NV0BP4tWfDNHAxWA-8" style="edgeStyle=orthogonalEdgeStyle;rounded=0;orthogonalLoop=1;jettySize=auto;html=1;exitX=1;exitY=0.5;exitDx=0;exitDy=0;exitPerimeter=0;entryX=0.436;entryY=1.075;entryDx=0;entryDy=0;entryPerimeter=0;" edge="1" parent="1" source="nPl-NV0BP4tWfDNHAxWA-6" target="nPl-NV0BP4tWfDNHAxWA-10">
          <mxGeometry relative="1" as="geometry">
            <mxPoint x="471" y="360" as="sourcePoint" />
            <mxPoint x="555" y="190" as="targetPoint" />
            <Array as="points">
              <mxPoint x="549" y="330" />
            </Array>
          </mxGeometry>
        </mxCell>
        <mxCell id="nPl-NV0BP4tWfDNHAxWA-9" value="No" style="edgeLabel;html=1;align=center;verticalAlign=middle;resizable=0;points=[];" vertex="1" connectable="0" parent="nPl-NV0BP4tWfDNHAxWA-8">
          <mxGeometry x="-0.8318" relative="1" as="geometry">
            <mxPoint as="offset" />
          </mxGeometry>
        </mxCell>
        <mxCell id="nPl-NV0BP4tWfDNHAxWA-12" style="edgeStyle=orthogonalEdgeStyle;rounded=0;orthogonalLoop=1;jettySize=auto;html=1;" edge="1" parent="1" source="nPl-NV0BP4tWfDNHAxWA-6" target="nPl-NV0BP4tWfDNHAxWA-13">
          <mxGeometry relative="1" as="geometry">
            <mxPoint x="414" y="430" as="targetPoint" />
          </mxGeometry>
        </mxCell>
        <mxCell id="nPl-NV0BP4tWfDNHAxWA-20" value="Si" style="edgeLabel;html=1;align=center;verticalAlign=middle;resizable=0;points=[];" vertex="1" connectable="0" parent="nPl-NV0BP4tWfDNHAxWA-12">
          <mxGeometry x="-0.3463" relative="1" as="geometry">
            <mxPoint as="offset" />
          </mxGeometry>
        </mxCell>
        <mxCell id="nPl-NV0BP4tWfDNHAxWA-6" value="PIN CORRECTO" style="strokeWidth=2;html=1;shape=mxgraph.flowchart.decision;whiteSpace=wrap;" vertex="1" parent="1">
          <mxGeometry x="357" y="280" width="114" height="100" as="geometry" />
        </mxCell>
        <mxCell id="nPl-NV0BP4tWfDNHAxWA-7" style="edgeStyle=orthogonalEdgeStyle;rounded=0;orthogonalLoop=1;jettySize=auto;html=1;entryX=0.5;entryY=0;entryDx=0;entryDy=0;entryPerimeter=0;" edge="1" parent="1" source="nPl-NV0BP4tWfDNHAxWA-4" target="nPl-NV0BP4tWfDNHAxWA-6">
          <mxGeometry relative="1" as="geometry" />
        </mxCell>
        <mxCell id="nPl-NV0BP4tWfDNHAxWA-11" style="edgeStyle=orthogonalEdgeStyle;rounded=0;orthogonalLoop=1;jettySize=auto;html=1;entryX=1;entryY=0.5;entryDx=0;entryDy=0;" edge="1" parent="1" source="nPl-NV0BP4tWfDNHAxWA-10" target="nPl-NV0BP4tWfDNHAxWA-1">
          <mxGeometry relative="1" as="geometry" />
        </mxCell>
        <mxCell id="nPl-NV0BP4tWfDNHAxWA-10" value="Se finaliza el proceso" style="rounded=1;whiteSpace=wrap;html=1;" vertex="1" parent="1">
          <mxGeometry x="510" y="65" width="90" height="50" as="geometry" />
        </mxCell>
        <mxCell id="nPl-NV0BP4tWfDNHAxWA-15" value="" style="edgeStyle=orthogonalEdgeStyle;rounded=0;orthogonalLoop=1;jettySize=auto;html=1;" edge="1" parent="1" source="nPl-NV0BP4tWfDNHAxWA-13" target="nPl-NV0BP4tWfDNHAxWA-14">
          <mxGeometry relative="1" as="geometry" />
        </mxCell>
        <mxCell id="nPl-NV0BP4tWfDNHAxWA-13" value="Introducir la cantidad a retirar" style="rounded=1;whiteSpace=wrap;html=1;" vertex="1" parent="1">
          <mxGeometry x="354" y="421" width="120" height="60" as="geometry" />
        </mxCell>
        <mxCell id="nPl-NV0BP4tWfDNHAxWA-16" style="edgeStyle=orthogonalEdgeStyle;rounded=0;orthogonalLoop=1;jettySize=auto;html=1;" edge="1" parent="1" source="nPl-NV0BP4tWfDNHAxWA-14" target="nPl-NV0BP4tWfDNHAxWA-17">
          <mxGeometry relative="1" as="geometry">
            <mxPoint x="414" y="650" as="targetPoint" />
          </mxGeometry>
        </mxCell>
        <mxCell id="nPl-NV0BP4tWfDNHAxWA-14" value="Seleccionar qué combinación de billetes se quiere&amp;nbsp;" style="whiteSpace=wrap;html=1;rounded=1;" vertex="1" parent="1">
          <mxGeometry x="354" y="540" width="120" height="60" as="geometry" />
        </mxCell>
        <mxCell id="nPl-NV0BP4tWfDNHAxWA-18" style="edgeStyle=orthogonalEdgeStyle;rounded=0;orthogonalLoop=1;jettySize=auto;html=1;" edge="1" parent="1" source="nPl-NV0BP4tWfDNHAxWA-17" target="nPl-NV0BP4tWfDNHAxWA-23">
          <mxGeometry relative="1" as="geometry">
            <mxPoint x="414" y="810" as="targetPoint" />
          </mxGeometry>
        </mxCell>
        <mxCell id="nPl-NV0BP4tWfDNHAxWA-22" value="Si" style="edgeLabel;html=1;align=center;verticalAlign=middle;resizable=0;points=[];" vertex="1" connectable="0" parent="nPl-NV0BP4tWfDNHAxWA-18">
          <mxGeometry x="0.0098" y="4" relative="1" as="geometry">
            <mxPoint x="-4" y="-10" as="offset" />
          </mxGeometry>
        </mxCell>
        <mxCell id="nPl-NV0BP4tWfDNHAxWA-19" style="edgeStyle=orthogonalEdgeStyle;rounded=0;orthogonalLoop=1;jettySize=auto;html=1;entryX=1;entryY=0.5;entryDx=0;entryDy=0;exitX=1;exitY=0.5;exitDx=0;exitDy=0;exitPerimeter=0;" edge="1" parent="1" source="nPl-NV0BP4tWfDNHAxWA-17" target="nPl-NV0BP4tWfDNHAxWA-13">
          <mxGeometry relative="1" as="geometry">
            <Array as="points">
              <mxPoint x="530" y="710" />
              <mxPoint x="530" y="451" />
            </Array>
          </mxGeometry>
        </mxCell>
        <mxCell id="nPl-NV0BP4tWfDNHAxWA-21" value="No" style="edgeLabel;html=1;align=center;verticalAlign=middle;resizable=0;points=[];" vertex="1" connectable="0" parent="nPl-NV0BP4tWfDNHAxWA-19">
          <mxGeometry x="-0.8215" y="-1" relative="1" as="geometry">
            <mxPoint as="offset" />
          </mxGeometry>
        </mxCell>
        <mxCell id="nPl-NV0BP4tWfDNHAxWA-17" value="Hay saldo suficiente en la cuenta?" style="strokeWidth=2;html=1;shape=mxgraph.flowchart.decision;whiteSpace=wrap;" vertex="1" parent="1">
          <mxGeometry x="364" y="660" width="100" height="100" as="geometry" />
        </mxCell>
        <mxCell id="nPl-NV0BP4tWfDNHAxWA-24" style="edgeStyle=orthogonalEdgeStyle;rounded=0;orthogonalLoop=1;jettySize=auto;html=1;" edge="1" parent="1" source="nPl-NV0BP4tWfDNHAxWA-23" target="nPl-NV0BP4tWfDNHAxWA-26">
          <mxGeometry relative="1" as="geometry">
            <mxPoint x="414" y="930" as="targetPoint" />
          </mxGeometry>
        </mxCell>
        <mxCell id="nPl-NV0BP4tWfDNHAxWA-23" value="Retirar billetes" style="rounded=1;whiteSpace=wrap;html=1;" vertex="1" parent="1">
          <mxGeometry x="354" y="820" width="120" height="60" as="geometry" />
        </mxCell>
        <mxCell id="nPl-NV0BP4tWfDNHAxWA-27" style="edgeStyle=orthogonalEdgeStyle;rounded=0;orthogonalLoop=1;jettySize=auto;html=1;" edge="1" parent="1" source="nPl-NV0BP4tWfDNHAxWA-26" target="nPl-NV0BP4tWfDNHAxWA-28">
          <mxGeometry relative="1" as="geometry">
            <mxPoint x="414" y="1080" as="targetPoint" />
          </mxGeometry>
        </mxCell>
        <mxCell id="nPl-NV0BP4tWfDNHAxWA-29" value="Si" style="edgeLabel;html=1;align=center;verticalAlign=middle;resizable=0;points=[];" vertex="1" connectable="0" parent="nPl-NV0BP4tWfDNHAxWA-27">
          <mxGeometry x="-0.08" relative="1" as="geometry">
            <mxPoint as="offset" />
          </mxGeometry>
        </mxCell>
        <mxCell id="nPl-NV0BP4tWfDNHAxWA-32" style="edgeStyle=orthogonalEdgeStyle;rounded=0;orthogonalLoop=1;jettySize=auto;html=1;entryX=1;entryY=0.5;entryDx=0;entryDy=0;exitX=1;exitY=0.5;exitDx=0;exitDy=0;exitPerimeter=0;" edge="1" parent="1" source="nPl-NV0BP4tWfDNHAxWA-26" target="nPl-NV0BP4tWfDNHAxWA-30">
          <mxGeometry relative="1" as="geometry" />
        </mxCell>
        <mxCell id="nPl-NV0BP4tWfDNHAxWA-33" value="No" style="edgeLabel;html=1;align=center;verticalAlign=middle;resizable=0;points=[];" vertex="1" connectable="0" parent="nPl-NV0BP4tWfDNHAxWA-32">
          <mxGeometry x="-0.7481" y="-1" relative="1" as="geometry">
            <mxPoint as="offset" />
          </mxGeometry>
        </mxCell>
        <mxCell id="nPl-NV0BP4tWfDNHAxWA-26" value="Se ha insertado la tarjeta?" style="strokeWidth=2;html=1;shape=mxgraph.flowchart.decision;whiteSpace=wrap;" vertex="1" parent="1">
          <mxGeometry x="351" y="920" width="126" height="110" as="geometry" />
        </mxCell>
        <mxCell id="nPl-NV0BP4tWfDNHAxWA-31" style="edgeStyle=orthogonalEdgeStyle;rounded=0;orthogonalLoop=1;jettySize=auto;html=1;entryX=0.5;entryY=0;entryDx=0;entryDy=0;" edge="1" parent="1" source="nPl-NV0BP4tWfDNHAxWA-28" target="nPl-NV0BP4tWfDNHAxWA-30">
          <mxGeometry relative="1" as="geometry" />
        </mxCell>
        <mxCell id="nPl-NV0BP4tWfDNHAxWA-28" value="Retirar tarjeta" style="rounded=1;whiteSpace=wrap;html=1;" vertex="1" parent="1">
          <mxGeometry x="354" y="1070" width="120" height="60" as="geometry" />
        </mxCell>
        <mxCell id="nPl-NV0BP4tWfDNHAxWA-30" value="" style="ellipse;html=1;shape=endState;fillColor=default;strokeColor=light-dark(#FF0000, #ffffff);" vertex="1" parent="1">
          <mxGeometry x="399" y="1169" width="30" height="30" as="geometry" />
        </mxCell>
      </root>
    </mxGraphModel>
  </diagram>
</mxfile>
